# xmcd CD database file
# Copyright (C) 1995-1998 Ti Kan
#
# Track frame offsets:
#	150
#	21675
#	36850
#	48155
#	66227
#	80637
#	101862
#	114392
#	131912
#	153905
#	174030
#	188720
#	208592
#	231840
#	250055
#	265540
#
# Disc length: 3774 seconds
#
# Revision: 1
# Processed by: cddbd v1.4b41PL2 Copyright (c) Steve Scherf et al.
# Submitted via: CDex 1.30Release
#
DISCID=d80ebc10
DTITLE=Kent DuChaine - She's Irresistible
DYEAR=1996
DGENRE=Blues
TTITLE0=Dues For The Blues
TTITLE1=Irresistible
TTITLE2=Back Home In Alabama
TTITLE3=16 Gague Steel
TTITLE4=Fifi Bordeaux
TTITLE5=Death Don't Have No Mercy
TTITLE6=Seventh Son
TTITLE7=Always Lift Him Up and Never Knock Him Down
TTITLE8=The Things I Used To Do
TTITLE9=Hellhound On My Trail
TTITLE10=Messing With You
TTITLE11=When A Man Loves A Woman
TTITLE12=Sad And Lonely
TTITLE13=Personality
TTITLE14=Johnny's Gone
TTITLE15=No Place Like Home
EXTD=YEAR: 1996 ID3G:   0
EXTT0=
EXTT1=
EXTT2=
EXTT3=
EXTT4=
EXTT5=
EXTT6=
EXTT7=
EXTT8=
EXTT9=
EXTT10=
EXTT11=
EXTT12=
EXTT13=
EXTT14=
EXTT15=
PLAYORDER=
